<svg xmlns="http://www.w3.org/2000/svg" xmlns:xlink="http://www.w3.org/1999/xlink" width="500" zoomAndPan="magnify" viewBox="0 0 375 374.999991" height="500" preserveAspectRatio="xMidYMid meet" version="1.0"><defs><g/><clipPath id="165d6d9c97"><path d="M 148.515625 66.175781 L 172.285156 66.175781 L 172.285156 139.792969 L 148.515625 139.792969 Z M 148.515625 66.175781 " clip-rule="nonzero"/></clipPath><clipPath id="df23ff155f"><path d="M 148.515625 199.957031 L 172.285156 199.957031 L 172.285156 273.574219 L 148.515625 273.574219 Z M 148.515625 199.957031 " clip-rule="nonzero"/></clipPath><clipPath id="45aa6c5eca"><path d="M 173.46875 158.359375 L 247.085938 158.359375 L 247.085938 182.128906 L 173.46875 182.128906 Z M 173.46875 158.359375 " clip-rule="nonzero"/></clipPath></defs><rect x="-37.5" width="450" fill="#ffffff" y="-37.499999" height="449.999989" fill-opacity="1"/><rect x="-37.5" width="450" fill="#000000" y="-37.499999" height="449.999989" fill-opacity="1"/><g fill="#f8f8f8" fill-opacity="1"><g transform="translate(75.809142, 259.790584)"><g><path d="M 72.28125 1.75 C 54.039062 1.75 39.648438 -2.597656 29.109375 -11.296875 C 18.566406 -19.992188 12.210938 -33.710938 10.046875 -52.453125 L 17.5625 -53.21875 C 20.582031 -35.976562 26.316406 -23.757812 34.765625 -16.5625 C 43.210938 -9.363281 55.890625 -5.765625 72.796875 -5.765625 C 86.847656 -5.765625 97.972656 -9.238281 106.171875 -16.1875 C 114.367188 -23.132812 118.46875 -32.460938 118.46875 -44.171875 C 118.46875 -52.535156 116.835938 -59.144531 113.578125 -64 C 110.316406 -68.851562 105.171875 -72.703125 98.140625 -75.546875 C 91.109375 -78.390625 81.988281 -80.898438 70.78125 -83.078125 C 61.40625 -84.921875 52.953125 -87.429688 45.421875 -90.609375 C 37.898438 -93.785156 31.921875 -98.59375 27.484375 -105.03125 C 23.046875 -111.476562 20.828125 -120.394531 20.828125 -131.78125 C 20.828125 -141.144531 23.046875 -149.507812 27.484375 -156.875 C 31.921875 -164.238281 38.03125 -170.050781 45.8125 -174.3125 C 53.59375 -178.582031 62.5 -180.71875 72.53125 -180.71875 C 86.925781 -180.71875 98.679688 -176.828125 107.796875 -169.046875 C 116.921875 -161.265625 122.488281 -149.675781 124.5 -134.28125 L 117.46875 -133.28125 C 115.289062 -147.164062 110.519531 -157.285156 103.15625 -163.640625 C 95.789062 -170.003906 85.582031 -173.1875 72.53125 -173.1875 C 59.3125 -173.1875 48.6875 -169.421875 40.65625 -161.890625 C 32.625 -154.359375 28.609375 -144.320312 28.609375 -131.78125 C 28.609375 -122.570312 30.363281 -115.25 33.875 -109.8125 C 37.394531 -104.375 42.414062 -100.234375 48.9375 -97.390625 C 55.46875 -94.546875 63.332031 -92.203125 72.53125 -90.359375 C 85.582031 -87.847656 96.039062 -84.789062 103.90625 -81.1875 C 111.78125 -77.59375 117.472656 -72.867188 120.984375 -67.015625 C 124.492188 -61.160156 126.25 -53.546875 126.25 -44.171875 C 126.25 -34.804688 123.988281 -26.691406 119.46875 -19.828125 C 114.957031 -12.960938 108.644531 -7.648438 100.53125 -3.890625 C 92.414062 -0.128906 83 1.75 72.28125 1.75 Z M 72.28125 1.75 "/></g></g></g><g clip-path="url(#165d6d9c97)"><path fill="#000000" d="M 148.515625 139.792969 L 148.515625 66.15625 L 172.285156 66.15625 L 172.285156 139.792969 Z M 148.515625 139.792969 " fill-opacity="1" fill-rule="nonzero"/></g><g clip-path="url(#df23ff155f)"><path fill="#000000" d="M 148.515625 273.574219 L 148.515625 199.9375 L 172.285156 199.9375 L 172.285156 273.574219 Z M 148.515625 273.574219 " fill-opacity="1" fill-rule="nonzero"/></g><g clip-path="url(#45aa6c5eca)"><path fill="#000000" d="M 173.46875 158.359375 L 247.105469 158.359375 L 247.105469 182.128906 L 173.46875 182.128906 Z M 173.46875 158.359375 " fill-opacity="1" fill-rule="nonzero"/></g><g fill="#f8f8f8" fill-opacity="1"><g transform="translate(134.173282, 260.540584)"><g><path d="M 145.328125 -178.203125 L 152.609375 -178.203125 L 152.609375 0 L 146.828125 0 L 29.875 -163.65625 L 29.875 0 L 22.59375 0 L 22.59375 -178.203125 L 28.609375 -178.203125 L 145.328125 -14.5625 Z M 145.328125 -178.203125 "/></g></g></g><g fill="#f8f8f8" fill-opacity="1"><g transform="translate(123.830174, 287.605676)"><g><path d="M 5.1875 0.125 C 3.875 0.125 2.835938 -0.1875 2.078125 -0.8125 C 1.328125 -1.4375 0.875 -2.421875 0.71875 -3.765625 L 1.265625 -3.8125 C 1.472656 -2.582031 1.878906 -1.707031 2.484375 -1.1875 C 3.097656 -0.664062 4.007812 -0.40625 5.21875 -0.40625 C 6.226562 -0.40625 7.023438 -0.65625 7.609375 -1.15625 C 8.203125 -1.65625 8.5 -2.328125 8.5 -3.171875 C 8.5 -3.765625 8.378906 -4.234375 8.140625 -4.578125 C 7.910156 -4.929688 7.539062 -5.207031 7.03125 -5.40625 C 6.53125 -5.613281 5.878906 -5.796875 5.078125 -5.953125 C 4.398438 -6.085938 3.789062 -6.269531 3.25 -6.5 C 2.71875 -6.726562 2.289062 -7.070312 1.96875 -7.53125 C 1.65625 -7.988281 1.5 -8.628906 1.5 -9.453125 C 1.5 -10.117188 1.65625 -10.71875 1.96875 -11.25 C 2.289062 -11.78125 2.726562 -12.195312 3.28125 -12.5 C 3.84375 -12.800781 4.484375 -12.953125 5.203125 -12.953125 C 6.234375 -12.953125 7.078125 -12.671875 7.734375 -12.109375 C 8.390625 -11.554688 8.785156 -10.726562 8.921875 -9.625 L 8.421875 -9.5625 C 8.265625 -10.550781 7.921875 -11.273438 7.390625 -11.734375 C 6.867188 -12.191406 6.140625 -12.421875 5.203125 -12.421875 C 4.253906 -12.421875 3.488281 -12.148438 2.90625 -11.609375 C 2.332031 -11.066406 2.046875 -10.347656 2.046875 -9.453125 C 2.046875 -8.785156 2.171875 -8.257812 2.421875 -7.875 C 2.679688 -7.488281 3.046875 -7.191406 3.515625 -6.984375 C 3.984375 -6.773438 4.546875 -6.609375 5.203125 -6.484375 C 6.140625 -6.296875 6.890625 -6.070312 7.453125 -5.8125 C 8.015625 -5.5625 8.421875 -5.222656 8.671875 -4.796875 C 8.921875 -4.378906 9.046875 -3.835938 9.046875 -3.171875 C 9.046875 -2.492188 8.882812 -1.910156 8.5625 -1.421875 C 8.238281 -0.929688 7.785156 -0.550781 7.203125 -0.28125 C 6.628906 -0.0078125 5.957031 0.125 5.1875 0.125 Z M 5.1875 0.125 "/></g></g></g><g fill="#f8f8f8" fill-opacity="1"><g transform="translate(138.068727, 287.605676)"><g><path d="M 0.578125 0 L 5.765625 -12.78125 L 6.28125 -12.78125 L 11.25 0 L 10.671875 0 L 9.203125 -3.859375 L 2.703125 -3.859375 L 1.15625 0 Z M 2.890625 -4.34375 L 9 -4.34375 L 6.03125 -12.09375 Z M 2.890625 -4.34375 "/></g></g></g><g fill="#f8f8f8" fill-opacity="1"><g transform="translate(154.341274, 287.605676)"><g><path d="M 10.421875 -12.78125 L 10.9375 -12.78125 L 10.9375 0 L 10.53125 0 L 2.140625 -11.734375 L 2.140625 0 L 1.625 0 L 1.625 -12.78125 L 2.046875 -12.78125 L 10.421875 -1.046875 Z M 10.421875 -12.78125 "/></g></g></g><g fill="#f8f8f8" fill-opacity="1"><g transform="translate(171.279818, 287.605676)"><g><path d="M 1.625 0 L 1.625 -12.78125 L 4.375 -12.78125 C 9.25 -12.78125 11.6875 -10.664062 11.6875 -6.4375 C 11.6875 -4.375 11.09375 -2.785156 9.90625 -1.671875 C 8.726562 -0.554688 7 0 4.71875 0 Z M 2.171875 -0.484375 L 4.65625 -0.484375 C 8.957031 -0.484375 11.109375 -2.46875 11.109375 -6.4375 C 11.109375 -8.40625 10.5625 -9.875 9.46875 -10.84375 C 8.382812 -11.8125 6.71875 -12.296875 4.46875 -12.296875 L 2.171875 -12.296875 Z M 2.171875 -0.484375 "/></g></g></g><g fill="#f8f8f8" fill-opacity="1"><g transform="translate(188.614366, 287.605676)"><g><path d="M 0.578125 0 L 5.765625 -12.78125 L 6.28125 -12.78125 L 11.25 0 L 10.671875 0 L 9.203125 -3.859375 L 2.703125 -3.859375 L 1.15625 0 Z M 2.890625 -4.34375 L 9 -4.34375 L 6.03125 -12.09375 Z M 2.890625 -4.34375 "/></g></g></g><g fill="#f8f8f8" fill-opacity="1"><g transform="translate(204.886914, 287.605676)"><g><path d="M 1.4375 0 L 2.0625 -12.78125 L 2.765625 -12.78125 L 8.078125 -0.515625 L 13.40625 -12.78125 L 14.109375 -12.78125 L 14.671875 0 L 14.1875 0 L 13.625 -12.03125 L 8.375 0 L 7.78125 0 L 2.5625 -11.984375 L 1.96875 0 Z M 1.4375 0 "/></g></g></g><g fill="#f8f8f8" fill-opacity="1"><g transform="translate(225.407445, 287.605676)"><g><path d="M 1.625 0 L 1.625 -12.78125 L 2.171875 -12.78125 L 2.171875 0 Z M 1.625 0 "/></g></g></g><g fill="#f8f8f8" fill-opacity="1"><g transform="translate(233.580014, 287.605676)"><g><path d="M 10.421875 -12.78125 L 10.9375 -12.78125 L 10.9375 0 L 10.53125 0 L 2.140625 -11.734375 L 2.140625 0 L 1.625 0 L 1.625 -12.78125 L 2.046875 -12.78125 L 10.421875 -1.046875 Z M 10.421875 -12.78125 "/></g></g></g><g fill="#f8f8f8" fill-opacity="1"><g transform="translate(250.518562, 287.605676)"><g><path d="M 1.625 0 L 1.625 -12.78125 L 2.171875 -12.78125 L 2.171875 0 Z M 1.625 0 "/></g></g></g><g fill="#f8f8f8" fill-opacity="1"><g transform="translate(104.423925, 312.355674)"><g><path d="M 10.421875 -12.78125 L 10.9375 -12.78125 L 10.9375 0 L 10.53125 0 L 2.140625 -11.734375 L 2.140625 0 L 1.625 0 L 1.625 -12.78125 L 2.046875 -12.78125 L 10.421875 -1.046875 Z M 10.421875 -12.78125 "/></g></g></g><g fill="#f8f8f8" fill-opacity="1"><g transform="translate(121.362471, 312.355674)"><g><path d="M 0.578125 0 L 5.765625 -12.78125 L 6.28125 -12.78125 L 11.25 0 L 10.671875 0 L 9.203125 -3.859375 L 2.703125 -3.859375 L 1.15625 0 Z M 2.890625 -4.34375 L 9 -4.34375 L 6.03125 -12.09375 Z M 2.890625 -4.34375 "/></g></g></g><g fill="#f8f8f8" fill-opacity="1"><g transform="translate(137.635018, 312.355674)"><g><path d="M 9.625 -12.78125 L 4.890625 -5.828125 L 4.890625 0 L 4.34375 0 L 4.34375 -5.875 L -0.359375 -12.78125 L 0.265625 -12.78125 L 4.640625 -6.359375 L 9.015625 -12.78125 Z M 9.625 -12.78125 "/></g></g></g><g fill="#f8f8f8" fill-opacity="1"><g transform="translate(151.261574, 312.355674)"><g><path d="M 0.578125 0 L 5.765625 -12.78125 L 6.28125 -12.78125 L 11.25 0 L 10.671875 0 L 9.203125 -3.859375 L 2.703125 -3.859375 L 1.15625 0 Z M 2.890625 -4.34375 L 9 -4.34375 L 6.03125 -12.09375 Z M 2.890625 -4.34375 "/></g></g></g><g fill="#f8f8f8" fill-opacity="1"><g transform="translate(167.534122, 312.355674)"><g><path d="M 10.421875 -12.78125 L 10.9375 -12.78125 L 10.9375 0 L 10.53125 0 L 2.140625 -11.734375 L 2.140625 0 L 1.625 0 L 1.625 -12.78125 L 2.046875 -12.78125 L 10.421875 -1.046875 Z M 10.421875 -12.78125 "/></g></g></g><g fill="#f8f8f8" fill-opacity="1"><g transform="translate(184.47267, 312.355674)"><g><path d="M 0.578125 0 L 5.765625 -12.78125 L 6.28125 -12.78125 L 11.25 0 L 10.671875 0 L 9.203125 -3.859375 L 2.703125 -3.859375 L 1.15625 0 Z M 2.890625 -4.34375 L 9 -4.34375 L 6.03125 -12.09375 Z M 2.890625 -4.34375 "/></g></g></g><g fill="#f8f8f8" fill-opacity="1"><g transform="translate(200.745212, 312.355674)"><g><path d="M 9.15625 -12.78125 L 9.125 -12.3125 L 4.96875 -12.3125 L 4.96875 0 L 4.40625 0 L 4.40625 -12.3125 L 0.15625 -12.3125 L 0.15625 -12.78125 Z M 9.15625 -12.78125 "/></g></g></g><g fill="#f8f8f8" fill-opacity="1"><g transform="translate(214.497771, 312.355674)"><g><path d="M 1.625 0 L 1.625 -12.78125 L 2.171875 -12.78125 L 2.171875 -6.765625 L 10.34375 -6.765625 L 10.34375 -12.78125 L 10.90625 -12.78125 L 10.90625 0 L 10.34375 0 L 10.34375 -6.265625 L 2.171875 -6.265625 L 2.171875 0 Z M 1.625 0 "/></g></g></g><g fill="#f8f8f8" fill-opacity="1"><g transform="translate(231.400315, 312.355674)"><g><path d="M 0.578125 0 L 5.765625 -12.78125 L 6.28125 -12.78125 L 11.25 0 L 10.671875 0 L 9.203125 -3.859375 L 2.703125 -3.859375 L 1.15625 0 Z M 2.890625 -4.34375 L 9 -4.34375 L 6.03125 -12.09375 Z M 2.890625 -4.34375 "/></g></g></g><g fill="#f8f8f8" fill-opacity="1"><g transform="translate(247.672863, 312.355674)"><g><path d="M 10.0625 -0.640625 L 10.1875 -0.234375 C 10.039062 -0.128906 9.882812 -0.0546875 9.71875 -0.015625 C 9.550781 0.0234375 9.363281 0.046875 9.15625 0.046875 C 8.75 0.046875 8.378906 -0.0390625 8.046875 -0.21875 C 7.710938 -0.40625 7.347656 -0.789062 6.953125 -1.375 L 4.125 -5.46875 C 4 -5.644531 3.8125 -5.820312 3.5625 -6 C 3.3125 -6.1875 2.992188 -6.28125 2.609375 -6.28125 L 2.15625 -6.28125 L 2.15625 0 L 1.625 0 L 1.625 -12.78125 L 4.875 -12.78125 C 6.175781 -12.78125 7.164062 -12.492188 7.84375 -11.921875 C 8.519531 -11.347656 8.859375 -10.578125 8.859375 -9.609375 C 8.859375 -8.597656 8.503906 -7.789062 7.796875 -7.1875 C 7.097656 -6.582031 6.125 -6.28125 4.875 -6.28125 L 3.859375 -6.28125 C 4.046875 -6.207031 4.222656 -6.082031 4.390625 -5.90625 C 4.554688 -5.726562 4.75 -5.484375 4.96875 -5.171875 L 7.21875 -1.859375 C 7.507812 -1.441406 7.742188 -1.128906 7.921875 -0.921875 C 8.109375 -0.710938 8.296875 -0.570312 8.484375 -0.5 C 8.679688 -0.425781 8.925781 -0.390625 9.21875 -0.390625 C 9.382812 -0.390625 9.535156 -0.414062 9.671875 -0.46875 C 9.804688 -0.53125 9.9375 -0.585938 10.0625 -0.640625 Z M 4.828125 -12.296875 L 2.15625 -12.296875 L 2.15625 -6.75 L 4.734375 -6.75 C 5.867188 -6.75 6.742188 -6.988281 7.359375 -7.46875 C 7.984375 -7.945312 8.296875 -8.640625 8.296875 -9.546875 C 8.296875 -10.367188 8.023438 -11.03125 7.484375 -11.53125 C 6.941406 -12.039062 6.054688 -12.296875 4.828125 -12.296875 Z M 4.828125 -12.296875 "/></g></g></g><g fill="#f8f8f8" fill-opacity="1"><g transform="translate(261.821422, 312.355674)"><g><path d="M 0.578125 0 L 5.765625 -12.78125 L 6.28125 -12.78125 L 11.25 0 L 10.671875 0 L 9.203125 -3.859375 L 2.703125 -3.859375 L 1.15625 0 Z M 2.890625 -4.34375 L 9 -4.34375 L 6.03125 -12.09375 Z M 2.890625 -4.34375 "/></g></g></g></svg>