<svg xmlns="http://www.w3.org/2000/svg" xmlns:xlink="http://www.w3.org/1999/xlink" width="500" zoomAndPan="magnify" viewBox="0 0 375 374.999991" height="500" preserveAspectRatio="xMidYMid meet" version="1.0"><defs><g/></defs><rect x="-37.5" width="450" fill="#ffffff" y="-37.499999" height="449.999989" fill-opacity="1"/><rect x="-37.5" width="450" fill="#000000" y="-37.499999" height="449.999989" fill-opacity="1"/><g fill="#fbfaf9" fill-opacity="1"><g transform="translate(26.993711, 221.45316)"><g><path d="M 38.902344 -14.167969 C 38.902344 -7.308594 34.066406 -2.8125 26.195312 -2.8125 C 17.875 -2.8125 10.230469 -7.757812 6.410156 -16.414062 L 2.8125 -16.414062 L 3.824219 0 L 7.644531 0 C 8.09375 -1.460938 9.332031 -3.035156 11.46875 -3.035156 C 15.066406 -3.035156 19.339844 1.460938 28.21875 1.460938 C 39.238281 1.460938 51.605469 -5.171875 51.605469 -18.664062 C 51.605469 -33.054688 37.441406 -38.339844 28.558594 -42.5 C 20.125 -46.546875 15.179688 -50.480469 15.179688 -57.117188 C 15.179688 -63.1875 19.449219 -67.570312 26.757812 -67.570312 C 32.492188 -67.570312 38.339844 -64.761719 42.835938 -55.203125 L 45.984375 -55.203125 L 45.199219 -70.71875 L 41.488281 -70.71875 C 41.039062 -69.257812 40.136719 -69.035156 38.902344 -69.035156 C 36.203125 -69.035156 32.941406 -71.621094 25.183594 -71.621094 C 12.03125 -71.621094 3.597656 -64.199219 3.597656 -53.066406 C 3.597656 -41.601562 12.816406 -35.304688 23.386719 -30.355469 C 32.941406 -25.859375 38.902344 -21.8125 38.902344 -14.167969 Z M 38.902344 -14.167969 "/></g></g></g><g fill="#fbfaf9" fill-opacity="1"><g transform="translate(74.663649, 221.45316)"><g><path d="M 43.847656 -69.820312 L 43.847656 -66.671875 C 51.15625 -66.109375 55.203125 -65.210938 55.203125 -60.601562 L 55.203125 -23.609375 L 24.621094 -69.820312 C 17.425781 -69.484375 10.230469 -69.484375 2.921875 -69.820312 L 2.921875 -66.671875 C 8.996094 -66.222656 12.367188 -63.863281 12.367188 -59.476562 L 12.367188 -9.332031 C 12.367188 -4.609375 8.433594 -3.710938 1.6875 -3.148438 L 1.6875 0 C 10.117188 -0.335938 19.226562 -0.335938 28.21875 0 L 28.21875 -3.148438 C 21.023438 -3.710938 16.863281 -4.609375 16.863281 -9.332031 L 16.863281 -58.128906 L 55.765625 0 L 59.703125 0 L 59.703125 -60.601562 C 59.703125 -65.210938 63.636719 -66.109375 70.496094 -66.671875 L 70.496094 -69.820312 C 62.0625 -69.484375 52.957031 -69.484375 43.847656 -69.820312 Z M 43.847656 -69.820312 "/></g></g></g><path stroke-linecap="butt" transform="matrix(0.75, 0, 0, 0.75, 149.57806, 152.307777)" fill="none" stroke-linejoin="miter" d="M 0.0000862964 1.001089 L 215.333434 1.001089 " stroke="#fbfaf9" stroke-width="2" stroke-opacity="1" stroke-miterlimit="4"/><path stroke-linecap="butt" transform="matrix(0.75, 0, 0, 0.75, 149.57806, 220.509595)" fill="none" stroke-linejoin="miter" d="M 0.0000862964 0.997623 L 227.041768 0.997623 " stroke="#fbfaf9" stroke-width="2" stroke-opacity="1" stroke-miterlimit="4"/><g fill="#fbfaf9" fill-opacity="1"><g transform="translate(149.57806, 182.249988)"><g><path d="M 4.515625 0.171875 C 3.710938 0.171875 2.9375 0.0664062 2.1875 -0.140625 C 1.445312 -0.359375 0.851562 -0.644531 0.40625 -1 L 1.203125 -2.75 C 1.628906 -2.4375 2.140625 -2.179688 2.734375 -1.984375 C 3.335938 -1.796875 3.9375 -1.703125 4.53125 -1.703125 C 5.195312 -1.703125 5.6875 -1.800781 6 -2 C 6.3125 -2.195312 6.46875 -2.457031 6.46875 -2.78125 C 6.46875 -3.019531 6.375 -3.21875 6.1875 -3.375 C 6 -3.539062 5.757812 -3.671875 5.46875 -3.765625 C 5.175781 -3.859375 4.78125 -3.960938 4.28125 -4.078125 C 3.507812 -4.265625 2.878906 -4.445312 2.390625 -4.625 C 1.898438 -4.8125 1.476562 -5.101562 1.125 -5.5 C 0.78125 -5.90625 0.609375 -6.445312 0.609375 -7.125 C 0.609375 -7.707031 0.765625 -8.238281 1.078125 -8.71875 C 1.398438 -9.195312 1.878906 -9.570312 2.515625 -9.84375 C 3.148438 -10.125 3.929688 -10.265625 4.859375 -10.265625 C 5.503906 -10.265625 6.132812 -10.1875 6.75 -10.03125 C 7.363281 -9.882812 7.898438 -9.664062 8.359375 -9.375 L 7.640625 -7.59375 C 6.710938 -8.125 5.78125 -8.390625 4.84375 -8.390625 C 4.1875 -8.390625 3.703125 -8.285156 3.390625 -8.078125 C 3.078125 -7.867188 2.921875 -7.585938 2.921875 -7.234375 C 2.921875 -6.890625 3.101562 -6.632812 3.46875 -6.46875 C 3.832031 -6.300781 4.382812 -6.132812 5.125 -5.96875 C 5.894531 -5.789062 6.523438 -5.609375 7.015625 -5.421875 C 7.503906 -5.242188 7.921875 -4.957031 8.265625 -4.5625 C 8.617188 -4.164062 8.796875 -3.628906 8.796875 -2.953125 C 8.796875 -2.378906 8.632812 -1.851562 8.3125 -1.375 C 7.988281 -0.894531 7.503906 -0.515625 6.859375 -0.234375 C 6.222656 0.0351562 5.441406 0.171875 4.515625 0.171875 Z M 4.515625 0.171875 "/></g></g></g><g fill="#fbfaf9" fill-opacity="1"><g transform="translate(166.705172, 182.249988)"><g><path d="M 7.84375 -2.15625 L 3.15625 -2.15625 L 2.265625 0 L -0.125 0 L 4.375 -10.09375 L 6.671875 -10.09375 L 11.1875 0 L 8.734375 0 Z M 7.109375 -3.9375 L 5.515625 -7.796875 L 3.90625 -3.9375 Z M 7.109375 -3.9375 "/></g></g></g><g fill="#fbfaf9" fill-opacity="1"><g transform="translate(185.677278, 182.249988)"><g><path d="M 10.453125 -10.09375 L 10.453125 0 L 8.53125 0 L 3.5 -6.125 L 3.5 0 L 1.203125 0 L 1.203125 -10.09375 L 3.125 -10.09375 L 8.140625 -3.96875 L 8.140625 -10.09375 Z M 10.453125 -10.09375 "/></g></g></g><g fill="#fbfaf9" fill-opacity="1"><g transform="translate(205.254777, 182.249988)"><g><path d="M 1.203125 -10.09375 L 5.78125 -10.09375 C 6.875 -10.09375 7.84375 -9.882812 8.6875 -9.46875 C 9.53125 -9.050781 10.179688 -8.460938 10.640625 -7.703125 C 11.109375 -6.941406 11.34375 -6.054688 11.34375 -5.046875 C 11.34375 -4.035156 11.109375 -3.148438 10.640625 -2.390625 C 10.179688 -1.628906 9.53125 -1.039062 8.6875 -0.625 C 7.84375 -0.207031 6.875 0 5.78125 0 L 1.203125 0 Z M 5.671875 -1.921875 C 6.679688 -1.921875 7.484375 -2.203125 8.078125 -2.765625 C 8.679688 -3.328125 8.984375 -4.085938 8.984375 -5.046875 C 8.984375 -6.003906 8.679688 -6.765625 8.078125 -7.328125 C 7.484375 -7.890625 6.679688 -8.171875 5.671875 -8.171875 L 3.53125 -8.171875 L 3.53125 -1.921875 Z M 5.671875 -1.921875 "/></g></g></g><g fill="#fbfaf9" fill-opacity="1"><g transform="translate(225.091724, 182.249988)"><g><path d="M 7.84375 -2.15625 L 3.15625 -2.15625 L 2.265625 0 L -0.125 0 L 4.375 -10.09375 L 6.671875 -10.09375 L 11.1875 0 L 8.734375 0 Z M 7.109375 -3.9375 L 5.515625 -7.796875 L 3.90625 -3.9375 Z M 7.109375 -3.9375 "/></g></g></g><g fill="#fbfaf9" fill-opacity="1"><g transform="translate(244.06383, 182.249988)"><g><path d="M 10.390625 0 L 10.375 -6.0625 L 7.40625 -1.0625 L 6.34375 -1.0625 L 3.390625 -5.921875 L 3.390625 0 L 1.203125 0 L 1.203125 -10.09375 L 3.125 -10.09375 L 6.90625 -3.828125 L 10.625 -10.09375 L 12.546875 -10.09375 L 12.578125 0 Z M 10.390625 0 "/></g></g></g><g fill="#fbfaf9" fill-opacity="1"><g transform="translate(265.760179, 182.249988)"><g><path d="M 1.203125 -10.09375 L 3.53125 -10.09375 L 3.53125 0 L 1.203125 0 Z M 1.203125 -10.09375 "/></g></g></g><g fill="#fbfaf9" fill-opacity="1"><g transform="translate(278.418946, 182.249988)"><g><path d="M 10.453125 -10.09375 L 10.453125 0 L 8.53125 0 L 3.5 -6.125 L 3.5 0 L 1.203125 0 L 1.203125 -10.09375 L 3.125 -10.09375 L 8.140625 -3.96875 L 8.140625 -10.09375 Z M 10.453125 -10.09375 "/></g></g></g><g fill="#fbfaf9" fill-opacity="1"><g transform="translate(297.996445, 182.249988)"><g><path d="M 1.203125 -10.09375 L 3.53125 -10.09375 L 3.53125 0 L 1.203125 0 Z M 1.203125 -10.09375 "/></g></g></g><g fill="#fbfaf9" fill-opacity="1"><g transform="translate(149.57806, 203.249987)"><g><path d="M 10.453125 -10.09375 L 10.453125 0 L 8.53125 0 L 3.5 -6.125 L 3.5 0 L 1.203125 0 L 1.203125 -10.09375 L 3.125 -10.09375 L 8.140625 -3.96875 L 8.140625 -10.09375 Z M 10.453125 -10.09375 "/></g></g></g><g fill="#fbfaf9" fill-opacity="1"><g transform="translate(169.155559, 203.249987)"><g><path d="M 7.84375 -2.15625 L 3.15625 -2.15625 L 2.265625 0 L -0.125 0 L 4.375 -10.09375 L 6.671875 -10.09375 L 11.1875 0 L 8.734375 0 Z M 7.109375 -3.9375 L 5.515625 -7.796875 L 3.90625 -3.9375 Z M 7.109375 -3.9375 "/></g></g></g><g fill="#fbfaf9" fill-opacity="1"><g transform="translate(188.127665, 203.249987)"><g><path d="M 6.046875 -3.578125 L 6.046875 0 L 3.703125 0 L 3.703125 -3.609375 L -0.203125 -10.09375 L 2.28125 -10.09375 L 4.96875 -5.609375 L 7.671875 -10.09375 L 9.96875 -10.09375 Z M 6.046875 -3.578125 "/></g></g></g><g fill="#fbfaf9" fill-opacity="1"><g transform="translate(205.802514, 203.249987)"><g><path d="M 7.84375 -2.15625 L 3.15625 -2.15625 L 2.265625 0 L -0.125 0 L 4.375 -10.09375 L 6.671875 -10.09375 L 11.1875 0 L 8.734375 0 Z M 7.109375 -3.9375 L 5.515625 -7.796875 L 3.90625 -3.9375 Z M 7.109375 -3.9375 "/></g></g></g><g fill="#fbfaf9" fill-opacity="1"><g transform="translate(224.77462, 203.249987)"><g><path d="M 10.453125 -10.09375 L 10.453125 0 L 8.53125 0 L 3.5 -6.125 L 3.5 0 L 1.203125 0 L 1.203125 -10.09375 L 3.125 -10.09375 L 8.140625 -3.96875 L 8.140625 -10.09375 Z M 10.453125 -10.09375 "/></g></g></g><g fill="#fbfaf9" fill-opacity="1"><g transform="translate(244.352118, 203.249987)"><g><path d="M 7.84375 -2.15625 L 3.15625 -2.15625 L 2.265625 0 L -0.125 0 L 4.375 -10.09375 L 6.671875 -10.09375 L 11.1875 0 L 8.734375 0 Z M 7.109375 -3.9375 L 5.515625 -7.796875 L 3.90625 -3.9375 Z M 7.109375 -3.9375 "/></g></g></g><g fill="#fbfaf9" fill-opacity="1"><g transform="translate(263.324224, 203.249987)"><g><path d="M 3.28125 -8.1875 L 0.0625 -8.1875 L 0.0625 -10.09375 L 8.859375 -10.09375 L 8.859375 -8.1875 L 5.625 -8.1875 L 5.625 0 L 3.28125 0 Z M 3.28125 -8.1875 "/></g></g></g><g fill="#fbfaf9" fill-opacity="1"><g transform="translate(280.16306, 203.249987)"><g><path d="M 10.453125 -10.09375 L 10.453125 0 L 8.125 0 L 8.125 -4.140625 L 3.53125 -4.140625 L 3.53125 0 L 1.203125 0 L 1.203125 -10.09375 L 3.53125 -10.09375 L 3.53125 -6.109375 L 8.125 -6.109375 L 8.125 -10.09375 Z M 10.453125 -10.09375 "/></g></g></g><g fill="#fbfaf9" fill-opacity="1"><g transform="translate(299.740558, 203.249987)"><g><path d="M 7.84375 -2.15625 L 3.15625 -2.15625 L 2.265625 0 L -0.125 0 L 4.375 -10.09375 L 6.671875 -10.09375 L 11.1875 0 L 8.734375 0 Z M 7.109375 -3.9375 L 5.515625 -7.796875 L 3.90625 -3.9375 Z M 7.109375 -3.9375 "/></g></g></g><g fill="#fbfaf9" fill-opacity="1"><g transform="translate(318.712664, 203.249987)"><g><path d="M 7.625 0 L 5.6875 -2.8125 L 3.53125 -2.8125 L 3.53125 0 L 1.203125 0 L 1.203125 -10.09375 L 5.5625 -10.09375 C 6.457031 -10.09375 7.234375 -9.941406 7.890625 -9.640625 C 8.554688 -9.347656 9.066406 -8.925781 9.421875 -8.375 C 9.773438 -7.832031 9.953125 -7.1875 9.953125 -6.4375 C 9.953125 -5.6875 9.769531 -5.035156 9.40625 -4.484375 C 9.050781 -3.941406 8.539062 -3.53125 7.875 -3.25 L 10.140625 0 Z M 7.59375 -6.4375 C 7.59375 -7 7.40625 -7.429688 7.03125 -7.734375 C 6.664062 -8.035156 6.132812 -8.1875 5.4375 -8.1875 L 3.53125 -8.1875 L 3.53125 -4.671875 L 5.4375 -4.671875 C 6.132812 -4.671875 6.664062 -4.820312 7.03125 -5.125 C 7.40625 -5.4375 7.59375 -5.875 7.59375 -6.4375 Z M 7.59375 -6.4375 "/></g></g></g><g fill="#fbfaf9" fill-opacity="1"><g transform="translate(337.237935, 203.249987)"><g><path d="M 7.84375 -2.15625 L 3.15625 -2.15625 L 2.265625 0 L -0.125 0 L 4.375 -10.09375 L 6.671875 -10.09375 L 11.1875 0 L 8.734375 0 Z M 7.109375 -3.9375 L 5.515625 -7.796875 L 3.90625 -3.9375 Z M 7.109375 -3.9375 "/></g></g></g></svg>